<svg xmlns="http://www.w3.org/2000/svg" viewBox="-6147 -8692 32 32">
  <defs>
    <style>
      .cls-1 {
        fill: none;
      }

      .cls-2 {
        fill: #666;
      }
    </style>
  </defs>
  <g id="TB:_Attach" data-name="TB: Attach" transform="translate(-6366 -9160.999)">
    <rect id="Rectangle_2290" data-name="Rectangle 2290" class="cls-1" width="32" height="32" rx="2" transform="translate(219 468.999)"/>
    <path id="Path_1433" data-name="Path 1433" class="cls-2" d="M12.75-13.812V-3.719a3.587,3.587,0,0,1-.295,1.448,3.788,3.788,0,0,1-.8,1.179,3.788,3.788,0,0,1-1.179.8A3.587,3.587,0,0,1,9.031,0,3.587,3.587,0,0,1,7.583-.295a3.788,3.788,0,0,1-1.179-.8,3.788,3.788,0,0,1-.8-1.179,3.587,3.587,0,0,1-.295-1.448V-14.344a2.529,2.529,0,0,1,.212-1.029,2.737,2.737,0,0,1,.573-.843,2.737,2.737,0,0,1,.843-.573A2.529,2.529,0,0,1,7.969-17,2.529,2.529,0,0,1,9-16.788a2.737,2.737,0,0,1,.843.573,2.737,2.737,0,0,1,.573.843,2.529,2.529,0,0,1,.212,1.029V-3.719A1.564,1.564,0,0,1,10.5-3.1a1.6,1.6,0,0,1-.34.506,1.6,1.6,0,0,1-.506.34,1.564,1.564,0,0,1-.623.125,1.564,1.564,0,0,1-.623-.125A1.6,1.6,0,0,1,7.9-2.59a1.6,1.6,0,0,1-.34-.506,1.564,1.564,0,0,1-.125-.623V-12.75H8.5v9.031a.511.511,0,0,0,.158.374.511.511,0,0,0,.374.158A.511.511,0,0,0,9.4-3.345a.511.511,0,0,0,.158-.374V-14.344a1.564,1.564,0,0,0-.125-.623,1.6,1.6,0,0,0-.34-.506,1.6,1.6,0,0,0-.506-.34,1.564,1.564,0,0,0-.623-.125,1.564,1.564,0,0,0-.623.125,1.6,1.6,0,0,0-.506.34,1.6,1.6,0,0,0-.34.506,1.564,1.564,0,0,0-.125.623V-3.719a2.529,2.529,0,0,0,.212,1.029,2.737,2.737,0,0,0,.573.843A2.737,2.737,0,0,0,8-1.274a2.529,2.529,0,0,0,1.029.212,2.529,2.529,0,0,0,1.029-.212,2.737,2.737,0,0,0,.843-.573,2.737,2.737,0,0,0,.573-.843,2.529,2.529,0,0,0,.212-1.029V-13.812Z" transform="translate(227 492.999)"/>
  </g>
</svg>
