<svg xmlns="http://www.w3.org/2000/svg" viewBox="-6073 -10332 32 32">
  <defs>
    <style>
      .cls-1 {
        fill: none;
      }

      .cls-2 {
        fill: #2E77D0;
      }

      .cls-2, .cls-3 {
        stroke: rgba(0,0,0,0);
      }

      .cls-3 {
        fill: #666;
      }
    </style>
  </defs>
  <g id="FB:_Formatting_Options" data-name="FB: Formatting Options" transform="translate(-7100 -10737.999)">
    <rect id="Rectangle_2306" data-name="Rectangle 2306" class="cls-1" width="32" height="32" rx="2" transform="translate(1027 405.999)"/>
    <path id="Path_1833" data-name="Path 1833" class="cls-2" d="M8.757,7.438h-3.7L4.35,9.563H3.188L6.375,0H7.438l2.739,8.2-.88.872ZM8.4,6.375,6.906,1.893,5.412,6.375Z" transform="translate(1033.813 414)"/>
    <path id="Path_1834" data-name="Path 1834" class="cls-3" d="M13.223,7.462a1.749,1.749,0,0,1,.652.12,1.559,1.559,0,0,1,.523.336,1.6,1.6,0,0,1,.477,1.162,1.665,1.665,0,0,1-.125.631,1.611,1.611,0,0,1-.357.54L8.442,16.2l-3.129.78.78-3.129,5.952-5.943a1.414,1.414,0,0,1,.544-.34A1.926,1.926,0,0,1,13.223,7.462ZM13.638,9.5a.576.576,0,0,0,.174-.423.536.536,0,0,0-.17-.419.614.614,0,0,0-.427-.154.758.758,0,0,0-.224.033.457.457,0,0,0-.191.116L7.056,14.4l-.282,1.121,1.121-.282Z" transform="translate(1033.813 414)"/>
  </g>
</svg>
